Coordinates
version=1
nRows=4
nColumns=114
inDegrees=yes

Units are S.I. units (second, meters, Newtons, ...)
If the header above contains a line with 'inDegrees', this indicates whether rotational values are in degrees (yes) or radians (no).

endheader 
time	pelvis_tilt	pelvis_list	pelvis_rotation	pelvis_tx	pelvis_ty	pelvis_tz	hip_flexion_l	hip_adduction_l	hip_rotation_l	hip_flexion_r	hip_adduction_r	hip_rotation_r	knee_angle_l	knee_angle_r	ankle_angle_l	ankle_angle_r	subtalar_angle_l	subtalar_angle_r	mtp_angle_l	mtp_angle_r	lumbar_extension	lumbar_bending	lumbar_rotation	arm_flex_l	arm_add_l	arm_rot_l	arm_flex_r	arm_add_r	arm_rot_r	elbow_flex_l	elbow_flex_r	pro_sup_l	pro_sup_r	addbrev_l/activation	addlong_l/activation	addmagDist_l/activation	addmagIsch_l/activation	addmagMid_l/activation	addmagProx_l/activation	bflh_l/activation	bfsh_l/activation	edl_l/activation	ehl_l/activation	fdl_l/activation	fhl_l/activation	gaslat_l/activation	gasmed_l/activation	glmax1_l/activation	glmax2_l/activation	glmax3_l/activation	glmed1_l/activation	glmed2_l/activation	glmed3_l/activation	glmin1_l/activation	glmin2_l/activation	glmin3_l/activation	grac_l/activation	iliacus_l/activation	perbrev_l/activation	perlong_l/activation	piri_l/activation	psoas_l/activation	recfem_l/activation	sart_l/activation	semimem_l/activation	semiten_l/activation	soleus_l/activation	tfl_l/activation	tibant_l/activation	tibpost_l/activation	vasint_l/activation	vaslat_l/activation	vasmed_l/activation	addbrev_r/activation	addlong_r/activation	addmagDist_r/activation	addmagIsch_r/activation	addmagMid_r/activation	addmagProx_r/activation	bflh_r/activation	bfsh_r/activation	edl_r/activation	ehl_r/activation	fdl_r/activation	fhl_r/activation	gaslat_r/activation	gasmed_r/activation	glmax1_r/activation	glmax2_r/activation	glmax3_r/activation	glmed1_r/activation	glmed2_r/activation	glmed3_r/activation	glmin1_r/activation	glmin2_r/activation	glmin3_r/activation	grac_r/activation	iliacus_r/activation	perbrev_r/activation	perlong_r/activation	piri_r/activation	psoas_r/activation	recfem_r/activation	sart_r/activation	semimem_r/activation	semiten_r/activation	soleus_r/activation	tfl_r/activation	tibant_r/activation	tibpost_r/activation	vasint_r/activation	vaslat_r/activation	vasmed_r/activation	
          6.32000000	          5.79036440	        -16.37862229	          2.56136795	         -5.49533197	          0.82363602	          0.35961237	        -28.11973701	        -16.09197761	         -7.03448042	         29.17175053	         18.71542566	         -9.12270944	         50.22738824	         21.63623237	         -2.14927640	          4.51148679	         -6.58279741	        -17.29288304	        -44.99972719	          4.99987799	        -16.30379793	         19.65417184	        -19.46105685	       -347.14108174	         -6.62294079	         11.79622880	       -344.55236310	         -7.63297644	         -3.45849306	         76.61990346	        117.94531789	        102.79091482	        109.75444676	          0.01002657	          0.01001930	          0.01002375	          0.01426657	          0.01001370	          0.01002161	          0.02551709	          0.01005659	          0.03953587	          0.03650688	          0.01130040	          0.01036084	          0.12850964	          0.26441672	          0.01729140	          0.01726841	          0.01727269	          0.02079934	          0.02979976	          0.04295151	          0.03561753	          0.09125107	          0.08861377	          0.01003262	          0.01136088	          0.02494711	          0.11938711	          0.06350096	          0.01001481	          0.35415698	          0.01010448	          0.34275874	          0.01004990	          0.01020124	          0.20478951	          0.06961858	          0.01073229	          0.01441405	          0.01440608	          0.01441023	          0.03418693	          0.02319222	          0.01623611	          0.02086653	          0.01654236	          0.01307941	          0.21876687	          0.01860601	          0.40958662	          0.04869464	          0.01740916	          0.01724887	          0.01462840	          0.01444417	          0.01387206	          0.01430447	          0.01439508	          0.01013586	          0.01050257	          0.01076155	          0.01021612	          0.01025607	          0.01075552	          0.02757249	          0.01004577	          0.01005649	          0.07330274	          0.02817075	          0.01005486	          0.01002705	          0.01025542	          0.18192525	          0.02203399	          0.01440997	          0.01005072	          0.34478555	          0.01733118	          0.01002905	          0.01001264	          0.01002020	
          6.33000000	          7.39519552	        -16.30301593	          1.91800832	         -5.47118604	          0.82701668	          0.36151442	        -24.48065337	        -16.58739154	         -4.49573144	         27.80784689	         19.11200173	         -9.54545413	         58.07654898	         23.71641629	         -3.95988721	          4.88586862	         -9.35667019	        -19.53313533	        -39.68557357	          4.41995298	        -18.13782509	         19.90381383	        -18.59977038	       -349.26574981	         -7.86870942	          9.80110305	       -347.61744527	         -6.64428684	         -0.50247222	         74.75689862	        117.26301367	        102.97686244	        109.68076688	          0.01048395	          0.02259239	          0.01198271	          0.01197623	          0.01050802	          0.01058559	          0.02170427	          0.01989231	          0.12960952	          0.03052635	          0.01031618	          0.01026173	          0.10709250	          0.22035656	          0.01441468	          0.01439393	          0.01439826	          0.01733956	          0.02483808	          0.03579707	          0.02971811	          0.07605680	          0.07387617	          0.02415984	          0.02014027	          0.02089109	          0.09949915	          0.05301522	          0.01692054	          0.29513262	          0.01017175	          0.28563374	          0.02791947	          0.01178626	          0.17067209	          0.05803244	          0.01005629	          0.01201379	          0.01200581	          0.01201012	          0.02864992	          0.01964469	          0.01361695	          0.01747589	          0.01403926	          0.01249163	          0.18231191	          0.01571336	          0.43908000	          0.20999031	          0.01453189	          0.01438632	          0.01219614	          0.01204035	          0.01171412	          0.01198950	          0.01204999	          0.02309679	          0.01266343	          0.01090152	          0.02399250	          0.01621128	          0.01238115	          0.02308841	          0.01558920	          0.01105929	          0.27110199	          0.02348153	          0.01106037	          0.10166871	          0.01140525	          0.15160828	          0.01842061	          0.01201031	          0.08482204	          0.63042238	          0.01444883	          0.02291765	          0.08571495	          0.02474733	
          6.34000000	          7.01876029	        -16.36838636	          0.44569148	         -5.44623352	          0.82602003	          0.36404521	        -19.52196290	        -17.27061819	         -3.73131351	         28.89613153	         19.53067390	         -9.80997072	         64.22223442	         27.43319799	         -4.95741645	          6.05760900	        -10.90812387	        -21.93513375	        -35.00551667	          3.89298168	        -17.66793724	         20.15439209	        -17.29409810	       -351.77016232	         -8.08787442	         10.83542941	       -349.33849400	         -6.77834073	          0.09185963	         74.79982252	        118.58163172	        103.24585251	        109.72881684	          0.22376669	          0.33450797	          0.01027555	          0.01005127	          0.23897982	          0.30662586	          0.06101827	          0.47015202	          0.13394902	          0.11180635	          0.01011223	          0.01001367	          0.12769029	          0.21865448	          0.01201610	          0.01199763	          0.01200167	          0.01445522	          0.02070218	          0.02983393	          0.02480045	          0.06339302	          0.06159333	          0.62196455	          0.23521838	          0.01744464	          0.08311339	          0.04430927	          0.54163014	          0.24594564	          0.55152567	          0.23802963	          0.41013251	          0.01000105	          0.14224718	          0.08812576	          0.01002019	          0.01001326	          0.01000548	          0.01000979	          0.02450415	          0.02504745	          0.01142256	          0.01463417	          0.01204401	          0.01246698	          0.15193365	          0.01345377	          0.50312766	          0.24778654	          0.01213321	          0.01199897	          0.01016759	          0.01003622	          0.01007496	          0.01006248	          0.01009199	          0.18978190	          0.01109974	          0.01016129	          0.09079453	          0.04107385	          0.01184764	          0.01942164	          0.02979048	          0.05800193	          0.23154341	          0.01958012	          0.02145299	          0.11847753	          0.01286987	          0.12634389	          0.01540891	          0.01000988	          0.07077300	          0.59935699	          0.01204595	          0.04829324	          0.13568844	          0.07092507	
          6.35000000	          6.23172909	        -16.23456732	         -0.94968181	         -5.42197300	          0.82334462	          0.36628263	        -13.90819171	        -17.87208838	         -2.79447145	         30.27797132	         19.64962216	         -9.90716057	         70.11970253	         31.54609445	         -6.37323768	          7.22836992	        -13.59766283	        -24.62614331	        -30.87148970	          3.43540442	        -16.74078340	         20.21404283	        -16.18032970	       -353.33860033	         -8.27804396	         11.98963819	       -350.28929166	         -6.94203795	         -0.03713900	         75.25707290	        120.38438483	        103.53254870	        109.76138516	          0.24205050	          0.28152146	          0.01004078	          0.01001739	          0.19926127	          0.31731599	          0.05087946	          0.39181457	          0.11162536	          0.09317319	          0.01021430	          0.01044543	          0.10640999	          0.19007776	          0.01002116	          0.01000704	          0.01000936	          0.01205333	          0.01725599	          0.02486483	          0.02069703	          0.05283819	          0.05135932	          0.51904641	          0.19641560	          0.09234725	          0.21550083	          0.03755906	          0.45143233	          0.20496047	          0.52253589	          0.19835932	          0.34178093	          0.03042376	          0.11855777	          0.07343876	          0.01003613	          0.01000254	          0.01000094	          0.01000188	          0.02076268	          0.02124105	          0.02096252	          0.02520102	          0.01993881	          0.01267467	          0.12661787	          0.01191623	          0.41937412	          0.20659077	          0.01014471	          0.01002575	          0.01000486	          0.01000270	          0.01006028	          0.01005581	          0.01009176	          0.16400894	          0.01061039	          0.01009035	          0.11411486	          0.03527225	          0.01119063	          0.01985737	          0.02486581	          0.05573947	          0.19296375	          0.01632852	          0.01792693	          0.09873567	          0.01102397	          0.10529188	          0.01833483	          0.01000107	          0.05902043	          0.49948548	          0.01004564	          0.04909248	          0.14356617	          0.06374131	
